<?xml version="1.0" standalone="no"?>
<!DOCTYPE svg PUBLIC "-//W3C//DTD SVG 20010904//EN"
 "http://www.w3.org/TR/2001/REC-SVG-20010904/DTD/svg10.dtd">
<svg version="1.0" xmlns="http://www.w3.org/2000/svg"
 width="375.000000pt" height="375.000000pt" viewBox="0 0 375.000000 375.000000"
 preserveAspectRatio="xMidYMid meet">
<metadata>
Created by potrace 1.11, written by Peter Selinger 2001-2013
</metadata>
<g transform="translate(0.000000,375.000000) scale(0.100000,-0.100000)"
fill="#000000" stroke="none">
<path d="M875 3744 c-258 -18 -417 -72 -566 -193 -164 -132 -253 -300 -291
-551 -19 -123 -19 -2127 0 -2250 38 -251 127 -419 291 -551 125 -102 246 -151
441 -181 123 -19 2127 -19 2250 0 195 30 316 79 441 181 184 148 274 342 298
642 15 179 15 1889 0 2068 -12 156 -44 291 -89 382 -95 190 -279 348 -474 404
-164 48 -160 48 -1236 50 -558 1 -1037 0 -1065 -1z m1953 -851 c18 -25 10 -69
-29 -151 -39 -82 -48 -142 -24 -162 10 -8 56 -16 120 -21 57 -4 109 -10 115
-14 5 -3 10 -17 10 -31 0 -35 -66 -160 -106 -202 -39 -40 -40 -46 -16 -70 12
-12 47 -22 110 -30 162 -22 217 -60 156 -109 -16 -13 -50 -35 -76 -50 -26 -14
-66 -48 -89 -75 -49 -59 -47 -84 8 -111 89 -43 142 -82 162 -118 l22 -38 -43
-29 c-24 -16 -65 -41 -93 -55 -83 -42 -137 -114 -111 -148 16 -22 63 -53 134
-89 35 -18 66 -38 69 -46 8 -21 -34 -72 -78 -94 -44 -23 -142 -39 -203 -33
-208 19 -309 46 -446 120 -99 53 -136 80 -245 181 -144 133 -203 161 -278 133
-44 -17 -108 -93 -144 -171 -53 -116 -244 -428 -285 -468 -62 -61 -208 -144
-317 -181 -125 -43 -225 -27 -259 42 -16 34 -7 52 65 131 45 48 54 64 51 89
-5 49 -54 77 -137 78 -150 1 -181 13 -181 74 0 34 14 58 77 129 35 39 43 55
43 87 0 53 -28 69 -130 78 -63 5 -85 11 -102 29 -21 20 -21 23 -6 55 8 18 45
55 81 82 71 54 90 83 81 120 -7 28 -53 60 -103 70 -56 12 -99 43 -111 81 -16
46 1 65 83 95 98 35 127 56 127 90 0 45 -25 85 -96 151 -35 33 -67 71 -70 85
-8 31 17 59 81 89 44 21 65 24 175 24 125 0 178 -8 320 -48 156 -43 234 -92
400 -246 121 -112 168 -142 239 -150 38 -5 59 -3 75 8 29 18 115 148 227 343
98 168 169 265 245 332 152 133 447 218 502 144z"/>
</g>
</svg>
