<svg height="532" viewBox="0 0 516 532" width="516" xmlns="http://www.w3.org/2000/svg"><g fill="none" fill-rule="evenodd"><path d="m452.982871 3.88815966c11.228421-9.14422922 28.017129-1.13497367 28.017129 13.36504244v230.7467979l-189-111.937297z" fill="#ffc850"/><path d="m464 238-115-68.070439 95.817271-108.2095132c6.699602-7.5654583 19.182729-2.8193997 19.182729 7.2945218z" fill="#ebaf4b"/><path d="m63.0171294 3.88815966c-11.2294579-9.14422922-28.0171294-1.13497367-28.0171294 13.36504244v230.7467979l189-111.937297z" fill="#ffc850"/><path d="m52 238 115-68.070439-95.8172709-108.2095132c-6.6996026-7.5654583-19.1827291-2.8193997-19.1827291 7.2945218z" fill="#ebaf4b"/><ellipse cx="257.5" cy="303.5" fill="#ffdc64" rx="240.5" ry="228.5"/><path d="m293 445.5v17.5c0 19.330376-15.445772 35-34.5 35s-34.5-15.669624-34.5-35v-17.5l34.5-17.5z" fill="#ff8087"/><path d="m276.317201 358h-37.634953c-8.125028 0-12.624188 9.505785-7.516088 15.882768l18.818506 23.496117c3.867591 4.828153 11.162526 4.828153 15.031146 0l18.818505-23.496117c5.107072-6.376983.60894-15.882768-7.517116-15.882768z" fill="#5d5360"/><g fill="#e1a546" transform="translate(345 366)"><path d="m144.792085 88.4194302c-1.330729 0-2.683189-.3094302-3.947692-.9665814-51.8342831-26.9556162-132.9601305-42.9725116-133.77657323-43.1318837-4.64616966-.9044884-7.67704514-5.4083023-6.77264597-10.0559651.9085383-4.6507674 5.36637769-7.6860814 10.0549734-6.773314 3.4158143.6654303 84.3502271 16.6367907 138.4061858 44.7473373 4.19811 2.1856744 5.835134 7.3590581 3.649675 11.5627558-1.527337 2.9349302-4.515787 4.6176511-7.613923 4.6176511z"/><path d="m161.950834 28.408593c-.736764 0-1.485946-.0962442-2.230989-.2970116-48.050086-12.9184535-135.4218758-10.4657791-136.2838489-10.4285233-4.8138043.1386745-8.6900964-3.5796628-8.8277224-8.31011624-.1427998-4.73459302 3.5793098-8.68681395 8.3092968-8.82859302 3.6838227-.11694186 90.7876035-2.5623721 141.2570095 11.00598836 4.570631 1.2304768 7.279689 5.9319535 6.052438 10.5071744-1.030642 3.827-4.491987 6.3469419-8.276184 6.3510814z"/></g><path d="m318.217769 514.754474c-132.644611 0-240.1740082-102.304303-240.1740082-228.504001 0-92.670373 58.0164872-172.396973 141.3480162-208.250473-114.196209 17.6441642-201.391777 111.863294-201.391777 225.495999 0 126.199698 107.529397 228.504001 240.174008 228.504001 35.241231 0 68.674689-7.280612 98.825992-20.253527-12.629566 1.951558-25.573888 3.008001-38.782231 3.008001z" fill="#ffc850"/><g fill="#e1a546" transform="translate(0 366)"><path d="m26.2048108 88.4194302c-3.0971015 0-6.0865858-1.6785814-7.6139235-4.6176511-2.1854589-4.2026628-.5484343-9.3770814 3.6496749-11.5627558 54.056994-28.1105466 134.9903718-44.081907 138.4061858-44.7473373 4.650309-.9334651 9.146436 2.1266861 10.054974 6.773314.904399 4.6466279-2.126476 9.1514767-6.772646 10.0559651-.816443.1593721-81.943325 16.1762675-133.7765732 43.1318837-1.2645032.6571512-2.615928.9665814-3.947692.9665814z"/><path d="m9.04709606 28.408593c-3.78419653 0-7.24554119-2.5240814-8.27514894-6.3510814-1.22621627-4.5752209 1.48180734-9.2766976 6.05243793-10.5071744 50.47354505-13.57249999 137.56490895-11.11051162 141.25700995-11.00598836 4.729987.14281395 8.451062 4.094 8.309296 8.82859302-.142799 4.73045344-4.240535 8.48190694-8.827722 8.31011624-.878529-.0289767-88.2637712-2.4909651-136.2838489 10.4285233-.7460776.2007674-1.4952595.2970116-2.23202404.2970116z"/></g><path d="m160 334c-16.500207 0-30-13.474819-30-29.944502v-17.110996c0-16.469683 13.499793-29.944502 30-29.944502s30 13.474819 30 29.944502v17.110996c0 16.46865-13.499793 29.944502-30 29.944502z" fill="#4b3f4e"/><path d="m160.249743 256c-1.454885 0-2.850262.228652-4.249743.435577v42.421714c0 9.467857 7.61096 17.142709 17 17.142709s17-7.674852 17-17.142709v-12.857291c0-16.500207-13.388436-30-29.750257-30z" fill="#5d5360"/><circle cx="160" cy="278" fill="#fff" r="13"/><path d="m356 334c-16.500207 0-30-13.474819-30-29.944502v-17.110996c0-16.469683 13.499793-29.944502 30-29.944502s30 13.474819 30 29.944502v17.110996c0 16.46865-13.499793 29.944502-30 29.944502z" fill="#4b3f4e"/><path d="m357.249743 256c-1.454885 0-2.850262.228652-4.249743.435577v42.421714c0 9.467857 7.61096 17.142709 17 17.142709s17-7.674852 17-17.142709v-12.857291c0-16.500207-13.38741-30-29.750257-30z" fill="#5d5360"/><circle cx="356" cy="278" fill="#fff" r="13"/><path d="m264.845549 396.825752-19.222342-37.668511c-.348829-.684409-.544257-1.433307-.807979-2.157241h-5.924832c-8.299386 0-12.895097 9.524522-7.67843 15.914075l19.222342 23.542429c3.729944 4.566195 10.48692 4.665008 14.565692.610559-.04623-.088411-.10717-.148739-.154451-.241311z" fill="#4b3f4e"/><path d="m258.5 428-34.5 17v17c0 2.697387.398742 5.288068 1.000498 7.803851 8.679658-1.060897 17.062602-3.538717 24.873981-7.339067v8.034703c0 4.694007 3.861444 8.500513 8.625521 8.500513s8.625521-3.80548 8.625521-8.500513v-8.033677c7.81242 3.80035 16.195364 6.27817 24.873981 7.338041.601756-2.515783 1.000498-5.10749 1.000498-7.803851v-17z" fill="#e6646e"/><path d="m301.249979 454c-12.094301 0-23.749992-3.565451-33.698714-10.311452-5.327313-3.610493-12.770277-3.610493-18.105847 0-9.944593 6.746001-21.600284 10.311452-33.694585 10.311452-14.715645 0-28.889477-5.399872-39.910473-15.201536-3.515077-3.13039-3.80714-8.49341-.655336-11.980038 3.151805-3.486628 8.5462-3.776327 12.077789-.650032 14.356501 12.778503 36.82575 14.174792 52.535235 3.515291 11.188184-7.578247 26.221692-7.578247 37.40162 0 15.713613 10.654383 38.185958 9.255023 52.54349-3.511196 3.51095-3.122201 8.912569-2.840691 12.073661.654126 3.151805 3.486629 2.855614 8.849649-.659464 11.975944-11.023059 9.801664-25.191731 15.197441-39.907376 15.197441z" fill="#ebaf4b"/></g></svg>