<svg height="262" viewBox="0 0 233 262" width="233" xmlns="http://www.w3.org/2000/svg"><g fill="#fff" fill-rule="evenodd"><g fill-rule="nonzero"><path d="m8.34782609 25.3548387h125.21739091v29.5806452c0 2.3378117 1.86481 4.2258064 4.173913 4.2258064h29.217392v33.8064516h8.347826v-38.032258c0-1.1699378-.470788-2.2263894-1.226902-2.9919037l-33.379076-33.7940716c-.760191-.7696414-1.803669-1.2462828-2.95924-1.2462828h-112.6956517v-8.4516129h158.6086957v92.9677421h8.347826v-97.19354855c0-2.33781174-1.86481-4.22580645-4.173913-4.22580645h-166.9565218c-2.3091031 0-4.173913 1.88799471-4.173913 4.22580645v12.67741935h-12.52173916c-2.30910313 0-4.17391304 1.8879947-4.17391304 4.2258065v236.6451617c0 2.337811 1.86480991 4.225806 4.17391304 4.225806h141.91304396v-8.451613h-137.73913091zm133.56521691 5.9755544 19.141305 19.3792843h-19.141305z"/><path d="m228.866667 127.199069h-6.224219c-18.456706 0-35.815495-8.285189-47.62819-22.730791l-.835547-1.024335c-1.566146-1.925257-4.78724-1.925257-6.353385 0l-.835547 1.020222c-11.816732 14.449715-29.175521 22.734904-47.632227 22.734904h-6.224219c-2.286653 0-4.133333 1.882063-4.133333 4.212529v68.225282c0 16.58889 8.779297 32.007405 22.910937 40.235001l37.038542 21.572756c.633724.370242 1.344141.555363 2.050521.555363s1.416797-.185121 2.050521-.555363l37.038542-21.572756c14.13164-8.227596 22.910937-23.646111 22.910937-40.235001v-68.225282c0-2.330466-1.84668-4.212529-4.133333-4.212529zm-4.133334 72.437811c0 13.573476-7.178841 26.186381-18.745312 32.916554l-34.988021 20.385926-34.988021-20.379755c-11.566471-6.736344-18.745312-19.349249-18.745312-32.922725v-64.012753h2.090885c19.724154 0 38.350391-8.353066 51.642448-23.047552 13.288021 14.694486 31.918294 23.047552 51.642448 23.047552h2.090885z"/><path d="m170 139c-25.362482 0-46 20.861839-46 46.5s20.637518 46.5 46 46.5 46-20.861839 46-46.5-20.637518-46.5-46-46.5zm0 84.545455c-20.753906 0-37.636364-17.065963-37.636364-38.045455s16.882458-38.045455 37.636364-38.045455 37.636364 17.065963 37.636364 38.045455-16.882458 38.045455-37.636364 38.045455z"/></g><path d="m168.484521 199.705139-7.581094-7.722443-5.903427 6.013497 12.524398 12.757917c.788891.807752 1.857052 1.24589 2.951714 1.24589.338387 0 .680851-.04153 1.019238-.126665 1.426933-.367538 2.55421-1.472227 2.980252-2.905001l12.524398-42.526389-7.99898-2.441945z"/><path d="m17 67h109v9h-109z"/><path d="m17 84h109v9h-109z"/><path d="m17 101h109v9h-109z"/><path d="m17 118h83v9h-83z"/><path d="m17 135h83v9h-83z"/><path d="m17 152h83v9h-83z"/><path d="m17 203h83v9h-83z"/><path d="m17 219h83v9h-83z"/><path d="m17 236h83v9h-83z"/><path d="m21 34h8v9h-8z"/><path d="m37 34h8v9h-8z"/><path d="m54 34h8v9h-8z"/><path d="m71 34h54v9h-54z"/></g></svg>