<?xml version="1.0" encoding="UTF-8"?>
<svg width="252px" height="84px" viewBox="0 0 252 84" version="1.1" xmlns="http://www.w3.org/2000/svg" xmlns:xlink="http://www.w3.org/1999/xlink">
    <!-- Generator: Sketch 51.3 (57544) - http://www.bohemiancoding.com/sketch -->
    <title>Group 2</title>
    <desc>Created with Sketch.</desc>
    <defs>
        <radialGradient cx="50.7908645%" cy="50%" fx="50.7908645%" fy="50%" r="47.1293672%" gradientTransform="translate(0.507909,0.500000),scale(0.641791,1.000000),rotate(-93.475076),translate(-0.507909,-0.500000)" id="radialGradient-1">
            <stop stop-color="#C68334" offset="0%"></stop>
            <stop stop-color="#EDBA5F" offset="100%"></stop>
        </radialGradient>
        <radialGradient cx="51.6922301%" cy="81.2929866%" fx="51.6922301%" fy="81.2929866%" r="83.385289%" gradientTransform="translate(0.516922,0.812930),scale(0.369969,1.000000),rotate(90.000000),translate(-0.516922,-0.812930)" id="radialGradient-2">
            <stop stop-color="#AC5F18" offset="0%"></stop>
            <stop stop-color="#EDBA5F" offset="100%"></stop>
        </radialGradient>
        <radialGradient cx="50%" cy="12.2577549%" fx="50%" fy="12.2577549%" r="100%" gradientTransform="translate(0.500000,0.122578),scale(0.351176,1.000000),rotate(90.000000),translate(-0.500000,-0.122578)" id="radialGradient-3">
            <stop stop-color="#AC5F18" offset="0%"></stop>
            <stop stop-color="#EDBA5F" offset="100%"></stop>
        </radialGradient>
        <radialGradient cx="48.9243815%" cy="53.0550036%" fx="48.9243815%" fy="53.0550036%" r="94.6102782%" gradientTransform="translate(0.489244,0.530550),scale(0.156813,1.000000),rotate(90.000000),scale(1.000000,3.085772),translate(-0.489244,-0.530550)" id="radialGradient-4">
            <stop stop-color="#B2671E" offset="0%"></stop>
            <stop stop-color="#EDBA5F" offset="100%"></stop>
        </radialGradient>
    </defs>
    <g id="Page-1" stroke="none" stroke-width="1" fill="none" fill-rule="evenodd">
        <g id="Artboard" transform="translate(-46.000000, -59.000000)">
            <g id="Group-2" transform="translate(46.000000, 59.000000)">
                <g id="Group-3">
                    <path d="M27.9385187,31.0599061 C25.4248145,33.752599 23.0437498,36.5726572 20.397406,39.1379849 C19.6698903,39.8432281 18.8306563,40.5120865 17.8630388,40.8269316 C15.5686557,41.5734819 7.23048618,45.1034392 4.46589338,41.1810723 C4.13676116,40.7141039 4.08214408,39.9570405 4.38830211,39.4750234 C5.43517904,37.826814 9.05254643,36.9225585 8.31762541,35.116882 C7.48316131,33.0666314 5.21550927,33.5092472 3.01949083,32.6174578 C2.51226205,32.4114754 1.91185131,32.3637097 1.50856946,32.0451597 C1.08987351,31.7144342 1.19439903,30.1677885 1.50856946,29.7384482 C2.71010613,28.0964473 5.89348556,27.1305937 5.52686971,25.1362875 C5.13213351,22.9890131 0.0331104703,23.7153894 0.000178229969,21.5331457 C-0.0354185773,19.1743353 5.27285219,19.2486128 5.40247065,16.8930265 C5.53355743,14.5107561 1.41376006,14.591961 0.964587158,12.2479017 C0.727945099,11.0129585 0.875884196,10.7339434 1.50856946,10.4459137 C3.21695178,9.66817337 6.82074775,10.2669564 7.09008086,8.40783184 C7.54950536,5.23656413 2.83057295,2.81416062 4.41950729,1.13230511 C5.64880638,-0.168883605 8.47180012,-0.0430570502 9.05980281,0.0602890757 C12.2379751,0.618878016 15.1535346,1.26177635 17.8630388,2.99727931 C18.0730307,3.1317842 21.4203032,4.43222267 23.6478056,6.8807304 C26.7745479,10.3176975 29.2616394,15.2806145 31.4950666,16.0062148 C32.4074386,16.302628 33.6305159,16.8607573 34.365522,16.2493997 C42.9641371,9.09731131 45.2610389,0.543600282 58.017788,0.213791761 C59.2161857,0.182808806 60.6206562,0.164901043 61.5418656,0.923741681 C63.9147397,2.87838237 58.2748988,6.19748279 58.9024972,8.54673509 C59.36274,10.269535 66.3313035,9.71019693 64.5514793,12.2479017 C63.8968757,13.181247 63.2240537,14.1915746 62.6580835,14.7752734 C60.8730393,16.6162329 59.4510203,16.283607 60.5365525,17.9508602 C61.0821457,18.7888288 64.0641793,18.8560601 66.4233687,20.5583202 C66.8567273,20.8710077 67.2425156,21.78621 66.8121685,22.102941 C66.1072039,22.6217875 64.2890616,22.9646242 62.6580835,23.753512 C62.069739,24.0380883 61.2683842,24.6081617 60.2540191,25.4637321 C60.1254474,25.8635963 60.1898955,26.3740733 60.4467322,26.7080215 C62.611225,28.5343251 63.7680659,29.5444673 63.9172549,29.7384482 C64.5492667,31.1474682 64.7606748,31.916372 64.5514793,32.0451597 C62.2950237,33.4343091 58.4604105,33.2250051 57.4666369,35.6633182 C56.7330082,37.4633424 63.3026977,40.3249515 61.5418656,41.1810723 L60.5365525,42.1971933 C57.4628597,43.6916301 53.7888258,42.2413373 50.7503532,41.1810723 C47.7039197,40.1180294 44.4525494,37.7722058 42.2903742,35.6633182 C38.5497121,32.0148459 36.8781108,26.7758203 33.5,26.7080215 C32.3469511,26.6848798 31.0120528,27.6777959 29.3052215,28.9821972 L27.9385187,31.0599061 Z" id="Path" fill="url(#radialGradient-1)"></path>
                    <g id="Group" transform="translate(10.000000, 6.000000)">
                        <path d="M23.6969029,16.5 C20.2242242,15.6503614 2.96653603,10.2098436 1.80304146,9.14054646 C0.979794836,8.38395056 -0.763967842,1.26158783 2.71359841,0.206286593 C9.931502,-1.98405631 16.4119328,13.9879205 23.3220795,14.101956 C30.1065718,14.2139178 32.5799218,2.06855389 41.2800778,1.48619347 C44.3174262,1.28288316 46.7017586,7.85765297 44.1491441,9.49947071 C42.0963126,10.8198328 39.9152059,11.9690211 37.6549204,12.9167371 C34.0346109,14.4346981 30.1499062,14.651205 26.4485568,15.9717117 L23.6969029,16.5 Z" id="Path-2" fill="url(#radialGradient-2)"></path>
                        <path d="M17.4144925,22.5450144 C15.6940148,23.6250052 10.9145639,29.633135 9.21704471,30.5720431 C6.84150407,31.885969 5.34616702,32.7884897 3.55571843,31.6333165 C3.07338686,31.3221226 2.01126193,29.9586577 0.369343637,27.5429215 C2.56273109,22.5256751 4.12105802,19.9022602 5.04432444,19.6726768 C11.1246726,18.1607109 17.3034764,16.7923364 23.5444102,16.5212065 C27.9361085,16.3304143 32.2985723,17.4676646 36.6227893,18.3007878 C38.9355494,18.7463746 47.5418612,21.1193665 46.2350565,25.9549247 C45.9272962,27.0937274 42.6657241,33.2574821 39.767365,32.6060091 C38.8768715,32.4058501 35.456562,28.8509807 29.5064365,21.9414008 C26.6591552,19.8500298 23.7628273,19.2993876 20.817453,20.2894743 C19.8865004,20.6024137 19.2161348,21.4613708 18.1401902,21.9414008 L17.4144925,22.5450144 Z" id="Path-3" fill="url(#radialGradient-3)"></path>
                        <path d="M24.1787448,15.7587071 C31.6146405,16.2245438 37.8321153,10.9648607 45.1905204,12.1368001 C45.9529353,12.2582264 46.6880175,12.919444 47.0884775,13.7032881 C50.2720221,19.9346295 42.359941,19.3087362 39.9653627,18.9553185 C29.8718395,17.4656076 30.1388571,17.453351 23.6471455,17.3924461 C21.8502195,17.3755874 18.8002143,17.6548378 15.5142549,17.84429 C12.3997913,18.0238545 7.78451046,18.7033217 4.72812685,19.1503984 C1.67174323,19.5974751 1.89708806,18.4283631 1.57971287,17.84429 C1.26233767,17.2602168 1.3777762,16.4118152 1.57971287,15.7587071 C1.84892703,14.8880087 2.48136917,14.3718119 3.02072309,13.7032881 C5.54266956,12.8997771 7.4675671,12.5792761 8.79541574,12.7417854 C15.4619463,13.557671 20.5902742,15.5339001 24.1787448,15.7587071 Z" id="Path-7" fill="url(#radialGradient-4)"></path>
                    </g>
                </g>
                <path d="M13.725,83.665 C11.1149869,83.665 8.57251237,83.3725029 6.0975,82.7875 C3.62248763,82.2024971 1.59000795,81.4150049 0,80.425 L3.42,72.685 C4.9200075,73.5550043 6.5999907,74.2524974 8.46,74.7775 C10.3200093,75.3025026 12.1049914,75.565 13.815,75.565 C15.2850074,75.565 16.3349968,75.4225014 16.965,75.1375 C17.5950032,74.8524986 17.91,74.4250028 17.91,73.855 C17.91,73.1949967 17.4975041,72.7000016 16.6725,72.37 C15.8474959,72.0399983 14.4900094,71.6800019 12.6,71.29 C10.1699878,70.7799974 8.1450081,70.2325029 6.525,69.6475 C4.9049919,69.0624971 3.495006,68.1025067 2.295,66.7675 C1.094994,65.4324933 0.495,63.6250114 0.495,61.345 C0.495,59.3649901 1.04999445,57.5650081 2.16,55.945 C3.27000555,54.3249919 4.92748898,53.0500046 7.1325,52.12 C9.33751103,51.1899953 12.0149843,50.725 15.165,50.725 C17.3250108,50.725 19.4474896,50.9574977 21.5325,51.4225 C23.6175104,51.8875023 25.454992,52.5699955 27.045,53.47 L23.85,61.165 C20.7599845,59.6049922 17.8350138,58.825 15.075,58.825 C12.3449863,58.825 10.98,59.4849934 10.98,60.805 C10.98,61.4350032 11.3849959,61.9074984 12.195,62.2225 C13.005004,62.5375016 14.3399907,62.8749982 16.2,63.235 C18.600012,63.6850022 20.6249917,64.2024971 22.275,64.7875 C23.9250082,65.3725029 25.3574939,66.3249934 26.5725,67.645 C27.7875061,68.9650066 28.395,70.7649886 28.395,73.045 C28.395,75.0250099 27.8400055,76.817492 26.73,78.4225 C25.6199945,80.027508 23.962511,81.3024953 21.7575,82.2475 C19.552489,83.1925047 16.8750157,83.665 13.725,83.665 Z M49.365,82.09 C47.8349924,82.9600043 45.7500132,83.395 43.11,83.395 C39.6599827,83.395 37.0050093,82.5625083 35.145,80.8975 C33.2849907,79.2324917 32.355,76.7350166 32.355,73.405 L32.355,67.105 L28.98,67.105 L28.98,59.68 L32.355,59.68 L32.355,52.795 L42.525,52.795 L42.525,59.68 L47.565,59.68 L47.565,67.105 L42.525,67.105 L42.525,73.315 C42.525,74.0650038 42.7199981,74.6499979 43.11,75.07 C43.5000019,75.4900021 44.0099969,75.7 44.64,75.7 C45.5100044,75.7 46.2749967,75.4750022 46.935,75.025 L49.365,82.09 Z M78.84,58.33 L78.84,82.945 L69.165,82.945 L69.165,80.605 C68.2649955,81.5350046 67.215006,82.2324977 66.015,82.6975 C64.814994,83.1625023 63.5400067,83.395 62.19,83.395 C59.0699844,83.395 56.5650095,82.4425095 54.675,80.5375 C52.7849906,78.6324905 51.84,75.7600192 51.84,71.92 L51.84,58.33 L62.01,58.33 L62.01,70.165 C62.01,71.8450084 62.2799973,73.0449964 62.82,73.765 C63.3600027,74.4850036 64.1549948,74.845 65.205,74.845 C66.195005,74.845 67.0199967,74.447504 67.68,73.6525 C68.3400033,72.857496 68.67,71.6050085 68.67,69.895 L68.67,58.33 L78.84,58.33 Z M110.565,49.555 L110.565,82.945 L100.89,82.945 L100.89,80.92 C99.4199926,82.5700082 97.1700151,83.395 94.14,83.395 C91.9799892,83.395 89.9925091,82.8775052 88.1775,81.8425 C86.3624909,80.8074948 84.9225053,79.3150097 83.8575,77.365 C82.7924947,75.4149903 82.26,73.1650128 82.26,70.615 C82.26,68.0649872 82.7924947,65.8225097 83.8575,63.8875 C84.9225053,61.9524903 86.3624909,60.4675052 88.1775,59.4325 C89.9925091,58.3974948 91.9799892,57.88 94.14,57.88 C96.8700136,57.88 98.9549928,58.5849929 100.395,59.995 L100.395,49.555 L110.565,49.555 Z M96.57,75.475 C97.7400059,75.475 98.6999963,75.0475043 99.45,74.1925 C100.200004,73.3374957 100.575,72.1450076 100.575,70.615 C100.575,69.0849923 100.200004,67.9000042 99.45,67.06 C98.6999963,66.2199958 97.7400059,65.8 96.57,65.8 C95.3999941,65.8 94.4400038,66.2199958 93.69,67.06 C92.9399962,67.9000042 92.565,69.0849923 92.565,70.615 C92.565,72.1450076 92.9399962,73.3374957 93.69,74.1925 C94.4400038,75.0475043 95.3999941,75.475 96.57,75.475 Z M115.065,58.33 L125.235,58.33 L125.235,82.945 L115.065,82.945 L115.065,58.33 Z M120.15,56.35 C118.319991,56.35 116.842506,55.8625049 115.7175,54.8875 C114.592494,53.9124951 114.03,52.6750075 114.03,51.175 C114.03,49.6749925 114.592494,48.4375049 115.7175,47.4625 C116.842506,46.4874951 118.319991,46 120.15,46 C122.010009,46 123.494994,46.4649954 124.605,47.395 C125.715006,48.3250046 126.27,49.5249926 126.27,50.995 C126.27,52.5550078 125.715006,53.837495 124.605,54.8425 C123.494994,55.847505 122.010009,56.35 120.15,56.35 Z M142.74,83.395 C140.009986,83.395 137.557511,82.8475055 135.3825,81.7525 C133.207489,80.6574945 131.505006,79.1425097 130.275,77.2075 C129.044994,75.2724903 128.43,73.0750123 128.43,70.615 C128.43,68.1549877 129.044994,65.9575097 130.275,64.0225 C131.505006,62.0874903 133.207489,60.5800054 135.3825,59.5 C137.557511,58.4199946 140.009986,57.88 142.74,57.88 C145.500014,57.88 147.967489,58.4199946 150.1425,59.5 C152.317511,60.5800054 154.012494,62.0874903 155.2275,64.0225 C156.442506,65.9575097 157.05,68.1549877 157.05,70.615 C157.05,73.0750123 156.442506,75.2724903 155.2275,77.2075 C154.012494,79.1425097 152.317511,80.6574945 150.1425,81.7525 C147.967489,82.8475055 145.500014,83.395 142.74,83.395 Z M142.74,75.475 C143.910006,75.475 144.869996,75.0475043 145.62,74.1925 C146.370004,73.3374957 146.745,72.1450076 146.745,70.615 C146.745,69.0849923 146.370004,67.9000042 145.62,67.06 C144.869996,66.2199958 143.910006,65.8 142.74,65.8 C141.569994,65.8 140.610004,66.2199958 139.86,67.06 C139.109996,67.9000042 138.735,69.0849923 138.735,70.615 C138.735,72.1450076 139.109996,73.3374957 139.86,74.1925 C140.610004,75.0475043 141.569994,75.475 142.74,75.475 Z" id="Studio" fill="#000000"></path>
                <path d="M83.24,11.88 C87.5600216,11.88 90.8599886,12.8474903 93.14,14.7825 C95.4200114,16.7175097 96.56,19.6949799 96.56,23.715 L96.56,36.945 L87.11,36.945 L87.11,33.705 C85.9399942,36.1650123 83.6150174,37.395 80.135,37.395 C78.1849903,37.395 76.5275068,37.0575034 75.1625,36.3825 C73.7974932,35.7074966 72.7625035,34.7925058 72.0575,33.6375 C71.3524965,32.4824942 71,31.1850072 71,29.745 C71,27.3149879 71.9299907,25.4700063 73.79,24.21 C75.6500093,22.9499937 78.4699811,22.32 82.25,22.32 L86.345,22.32 C86.0149984,20.3999904 84.4700138,19.44 81.71,19.44 C80.5999944,19.44 79.4750057,19.6124983 78.335,19.9575 C77.1949943,20.3025017 76.2200041,20.774997 75.41,21.375 L72.17,14.67 C73.5800071,13.7999956 75.28249,13.1175025 77.2775,12.6225 C79.27251,12.1274975 81.2599901,11.88 83.24,11.88 Z M83.195,31.275 C83.9150036,31.275 84.5599972,31.0800019 85.13,30.69 C85.7000029,30.299998 86.1199986,29.7150039 86.39,28.935 L86.39,27.225 L83.87,27.225 C81.7999897,27.225 80.765,27.9149931 80.765,29.295 C80.765,29.8650028 80.9824978,30.3374981 81.4175,30.7125 C81.8525022,31.0875019 82.4449963,31.275 83.195,31.275 Z M114.65,37.395 C111.859986,37.395 109.362511,36.8550054 107.1575,35.775 C104.952489,34.6949946 103.227506,33.1800098 101.9825,31.23 C100.737494,29.2799903 100.115,27.0750123 100.115,24.615 C100.115,22.1549877 100.737494,19.9575097 101.9825,18.0225 C103.227506,16.0874903 104.952489,14.5800054 107.1575,13.5 C109.362511,12.4199946 111.859986,11.88 114.65,11.88 C117.650015,11.88 120.214989,12.5249936 122.345,13.815 C124.475011,15.1050065 125.944996,16.8899886 126.755,19.17 L118.88,23.04 C117.919995,20.8799892 116.495009,19.8 114.605,19.8 C113.404994,19.8 112.407504,20.2199958 111.6125,21.06 C110.817496,21.9000042 110.42,23.0849924 110.42,24.615 C110.42,26.1750078 110.817496,27.3749958 111.6125,28.215 C112.407504,29.0550042 113.404994,29.475 114.605,29.475 C116.495009,29.475 117.919995,28.3950108 118.88,26.235 L126.755,30.105 C125.944996,32.3850114 124.475011,34.1699936 122.345,35.46 C120.214989,36.7500065 117.650015,37.395 114.65,37.395 Z M140.12,11.88 C144.440022,11.88 147.739989,12.8474903 150.02,14.7825 C152.300011,16.7175097 153.44,19.6949799 153.44,23.715 L153.44,36.945 L143.99,36.945 L143.99,33.705 C142.819994,36.1650123 140.495017,37.395 137.015,37.395 C135.06499,37.395 133.407507,37.0575034 132.0425,36.3825 C130.677493,35.7074966 129.642504,34.7925058 128.9375,33.6375 C128.232496,32.4824942 127.88,31.1850072 127.88,29.745 C127.88,27.3149879 128.809991,25.4700063 130.67,24.21 C132.530009,22.9499937 135.349981,22.32 139.13,22.32 L143.225,22.32 C142.894998,20.3999904 141.350014,19.44 138.59,19.44 C137.479994,19.44 136.355006,19.6124983 135.215,19.9575 C134.074994,20.3025017 133.100004,20.774997 132.29,21.375 L129.05,14.67 C130.460007,13.7999956 132.16249,13.1175025 134.1575,12.6225 C136.15251,12.1274975 138.13999,11.88 140.12,11.88 Z M140.075,31.275 C140.795004,31.275 141.439997,31.0800019 142.01,30.69 C142.580003,30.299998 142.999999,29.7150039 143.27,28.935 L143.27,27.225 L140.75,27.225 C138.67999,27.225 137.645,27.9149931 137.645,29.295 C137.645,29.8650028 137.862498,30.3374981 138.2975,30.7125 C138.732502,31.0875019 139.324996,31.275 140.075,31.275 Z M167.525,14.985 C169.325009,12.9149897 171.979982,11.88 175.49,11.88 L175.49,20.88 C174.679996,20.7599994 173.930003,20.7 173.24,20.7 C169.759983,20.7 168.02,22.4699823 168.02,26.01 L168.02,36.945 L157.85,36.945 L157.85,12.33 L167.525,12.33 L167.525,14.985 Z M191.15,37.395 C188.419986,37.395 185.967511,36.8475055 183.7925,35.7525 C181.617489,34.6574945 179.915006,33.1425097 178.685,31.2075 C177.454994,29.2724903 176.84,27.0750123 176.84,24.615 C176.84,22.1549877 177.454994,19.9575097 178.685,18.0225 C179.915006,16.0874903 181.617489,14.5800054 183.7925,13.5 C185.967511,12.4199946 188.419986,11.88 191.15,11.88 C193.910014,11.88 196.377489,12.4199946 198.5525,13.5 C200.727511,14.5800054 202.422494,16.0874903 203.6375,18.0225 C204.852506,19.9575097 205.46,22.1549877 205.46,24.615 C205.46,27.0750123 204.852506,29.2724903 203.6375,31.2075 C202.422494,33.1425097 200.727511,34.6574945 198.5525,35.7525 C196.377489,36.8475055 193.910014,37.395 191.15,37.395 Z M191.15,29.475 C192.320006,29.475 193.279996,29.0475043 194.03,28.1925 C194.780004,27.3374957 195.155,26.1450077 195.155,24.615 C195.155,23.0849924 194.780004,21.9000042 194.03,21.06 C193.279996,20.2199958 192.320006,19.8 191.15,19.8 C189.979994,19.8 189.020004,20.2199958 188.27,21.06 C187.519996,21.9000042 187.145,23.0849924 187.145,24.615 C187.145,26.1450077 187.519996,27.3374957 188.27,28.1925 C189.020004,29.0475043 189.979994,29.475 191.15,29.475 Z M225.755,11.88 C228.785015,11.88 231.222491,12.7949908 233.0675,14.625 C234.912509,16.4550092 235.835,19.2149816 235.835,22.905 L235.835,36.945 L225.665,36.945 L225.665,24.66 C225.665,21.8399859 224.66001,20.43 222.65,20.43 C221.509994,20.43 220.587504,20.827496 219.8825,21.6225 C219.177496,22.417504 218.825,23.6699915 218.825,25.38 L218.825,36.945 L208.655,36.945 L208.655,12.33 L218.33,12.33 L218.33,14.76 C219.290005,13.7999952 220.399994,13.0800024 221.66,12.6 C222.920006,12.1199976 224.284993,11.88 225.755,11.88 Z M240.245,12.33 L250.415,12.33 L250.415,36.945 L240.245,36.945 L240.245,12.33 Z M245.33,10.35 C243.499991,10.35 242.022506,9.86250488 240.8975,8.8875 C239.772494,7.91249512 239.21,6.6750075 239.21,5.175 C239.21,3.6749925 239.772494,2.43750488 240.8975,1.4625 C242.022506,0.487495125 243.499991,0 245.33,0 C247.190009,0 248.674994,0.46499535 249.785,1.395 C250.895006,2.32500465 251.45,3.52499265 251.45,4.995 C251.45,6.5550078 250.895006,7.83749497 249.785,8.8425 C248.674994,9.84750503 247.190009,10.35 245.33,10.35 Z" id="acaroni" fill="#000000"></path>
            </g>
        </g>
    </g>
</svg>