<svg height="496pt" viewBox="0 0 496 496" width="496pt" xmlns="http://www.w3.org/2000/svg"><path d="m288 136h-280v272h64v-32h-32v-144h80l-48 48h64v-64h118.878906l53.121094-60zm0 0" fill="#f0d0b4"/><path d="m400 216-16 16-44-44-140 124h-16v-16l70.878906-80h-118.878906v64h-64v208h352v-272zm0 0" fill="#e6e9ed"/><path d="m312 408h80v48h-80zm0 0" fill="#48cfad"/><path d="m216 408h64v48h-64zm0 0" fill="#fcd770"/><path d="m120 232-48 48v96h-32v-144zm0 0" fill="#fcd770"/><path d="m104 408h80v48h-80zm0 0" fill="#48cfad"/><path d="m340 188-140 124h-16v-16l70.878906-80 53.121094-60zm0 0" fill="#fcd770"/><path d="m433.359375 8h-2.71875c-14.480469 0-28.402344 5.761719-38.640625 16-10.320312 10.320312-16.078125 24.238281-16 38.800781v9.199219l-16 16-12.71875-8.480469c-7.359375-4.878906-16-7.519531-24.800781-7.519531-11.839844 0-23.199219 4.71875-31.519531 13.039062l-26.960938 26.960938 120 120 26.960938-26.960938c8.320312-8.320312 13.039062-19.679687 13.039062-31.519531 0-8.808593-2.640625-17.449219-7.519531-24.808593l-8.480469-12.710938 16-16h9.199219c14.5625.078125 28.480469-5.679688 38.800781-16 10.238281-10.238281 16-24.152344 16-38.640625v-2.71875c0-30.160156-24.480469-54.640625-54.640625-54.640625zm0 0" fill="#ff826e"/><g fill="#1e1713"><path d="m433.335938 0h-2.695313c-16.738281 0-32.472656 6.511719-44.3125 18.351562-11.695313 11.695313-18.382813 27.894532-18.351563 44.449219l.007813 5.894531-9.007813 9.007813-7.296874-4.855469c-8.671876-5.785156-18.769532-8.847656-29.191407-8.847656-14.054687 0-27.273437 5.480469-37.207031 15.414062l-32.59375 32.585938 16 16h-268.6875v288h64v80h368v-288h-12.9375c8.335938-9.574219 12.9375-21.664062 12.9375-34.488281 0-10.433594-3.054688-20.519531-8.839844-29.191407l-4.863281-7.296874 9.007813-9.015626 5.894531.015626h.128906c16.496094 0 32.640625-6.6875 44.3125-18.359376 11.839844-11.832031 18.359375-27.558593 18.359375-44.304687v-2.695313c0-34.550781-28.113281-62.664062-62.664062-62.664062zm-145.335938 99.3125 108.6875 108.6875-12.6875 12.6875-108.6875-108.6875zm20.351562 68.351562 19.976563 19.976563-131.359375 116.359375h-4.96875v-4.96875zm-292.351562 232.335938v-256h268.6875l12.335938 12.335938-45.765626 51.664062h-118.570312l-16 16h-84.6875v160h32v16zm48-32h-16v-128h52.6875l-36.6875 36.6875zm64-132.6875v36.6875h-36.6875zm288 244.6875h-336v-192h64v-64h93.089844l-61.089844 68.96875v27.03125h27.03125l136.632812-121.015625 44.335938 44.328125 19.3125-19.3125h12.6875zm64-414.640625c0 12.464844-4.855469 24.175781-13.664062 32.992187-8.6875 8.695313-20.710938 13.671876-33 13.671876-.03125 0-.0625 0-.097657 0l-12.542969-.03125-22.992187 22.984374 12.144531 18.214844c4.023438 6.039063 6.152344 13.066406 6.152344 20.320313 0 8.472656-3.007812 16.410156-8.265625 22.902343l-108.175781-108.167968c12.175781-9.695313 30.152344-10.839844 43.242187-2.09375l18.214844 12.144531 22.992187-22.992187-.023437-12.535157c-.023437-12.328125 4.953125-24.394531 13.664063-33.105469 8.816406-8.816406 20.527343-13.664062 32.992187-13.664062h2.695313c25.726562 0 46.664062 20.929688 46.664062 46.664062zm0 0"/><path d="m400 64h16c0-8.824219 7.175781-16 16-16v-16c-17.648438 0-32 14.351562-32 32zm0 0"/><path d="m96 304h64v16h-64zm0 0"/><path d="m240 304h160v16h-160zm0 0"/><path d="m384 336h16v16h-16zm0 0"/><path d="m96 336h272v16h-272zm0 0"/><path d="m304 464h96v-64h-96zm16-48h64v32h-64zm0 0"/><path d="m208 464h80v-64h-80zm16-48h48v32h-48zm0 0"/><path d="m96 464h96v-64h-96zm16-48h64v32h-64zm0 0"/><path d="m288 272h112v16h-112zm0 0"/><path d="m96 368h16v16h-16zm0 0"/><path d="m128 368h272v16h-272zm0 0"/><path d="m32 160h16v16h-16zm0 0"/><path d="m64 160h192v16h-192zm0 0"/><path d="m32 192h80v16h-80zm0 0"/></g></svg>