<svg height="266" viewBox="0 0 204 266" width="204" xmlns="http://www.w3.org/2000/svg"><g fill="#fff" fill-rule="evenodd"><path d="m0 31.4246089v230.1489591c0 2.444747 1.98126859 4.426432 4.42550124 4.426432h168.15082076c2.442409 0 4.423678-1.981685 4.423678-4.426432v-185.8882816c0-.0984464-.04739-.1823078-.056504-.2789308-.021871-.3883158-.098425-.7711619-.226013-1.1376004-.049213-.1422003-.083844-.2789307-.145816-.4174851-.215078-.4812925-.514-.920654-.885829-1.2962078l-44.249545-44.258854c-.375475-.3737313-.816567-.672716-1.301403-.886016-.133057-.0565155-.267936-.1039153-.406461-.1458462-.370007-.1276156-.754595-.2041847-1.146475-.229708-.07473.0127617-.162219-.0346381-.255177-.0346381h-123.90127576c-2.44423265 0-4.42550124 1.979862-4.42550124 4.4246089zm161.893511 39.8342451h-29.143055v-29.1491871zm-153.04433109-35.4078123h115.05209609v39.8342447c0 2.4429239 1.981268 4.4246094 4.423679 4.4246094h39.825865v177.0390622h-159.30164009z" fill-rule="nonzero"/><path d="m186.3 230.148958v8.851042h13.274544c2.444208 0 4.425456-1.979862 4.425456-4.424609v-230.14895866c0-2.44474691-1.981248-4.42643234-4.425456-4.42643234h-168.1490879c-2.4442079 0-4.4254561 1.98168543-4.4254561 4.42643234v13.27747406h8.8509113v-8.85286468h159.2981777v221.29791628z"/><path d="m36 89h106v9h-106z"/><path d="m36 62h35v9h-35z"/><path d="m35 115h71v9h-71z"/><path d="m115 115h27v9h-27z"/><path d="m36 142h106v9h-106z"/><path d="m36 195h106v9h-106z"/><path d="m76 168h66v9h-66z"/><path d="m35 168h31v9h-31z"/><path d="m35 222h18v9h-18z"/><path d="m62 222h80v9h-80z"/></g></svg>